Patient4_TMGait_0pt5_01_right_31_GRF.mot
version=1
nRows=45
nColumns=19
inDegrees=no
endheader
time	F1x	F1y	F1z	M1x	M1y	M1z	F2x	F2y	F2z	M2x	M2y	M2z	EC1x	EC1y	EC1z	EC2x	EC2y	EC2z
40.75	-5.8435	772.5163	61.1415	-287.8394	-55.3819	701.7107	-4.5563	5.8967	19.1354	-2.8883	-25.2551	11.6397	-0.0592	0.0182	-0.0073	-0.0462	0.0165	0.9585
40.7632	-5.7256	757.8334	60.0306	-282.1903	-53.694	686.8338	-3.1313	4.7184	12.7008	-1.6095	-16.8778	8.542	-0.0592	0.0182	-0.0073	-0.0462	0.0165	0.9585
40.7764	-5.5066	743.301	58.9227	-276.4135	-51.9723	671.7878	-1.9526	3.7823	7.2941	-0.52356	-9.7813	6.0018	-0.0592	0.0182	-0.0073	-0.0462	0.0165	0.9585
40.7896	-5.1791	730.3169	57.9129	-271.0337	-50.3435	657.8775	-1.0744	3.129	3.1999	0.31092	-4.3661	4.1462	-0.0592	0.0182	-0.0073	-0.0462	0.0165	0.9585
40.8029	-4.7102	719.8937	57.0551	-266.4584	-48.8617	646.0172	-0.47235	2.7346	0.39168	0.89646	-0.61661	2.9292	-0.0592	0.0182	-0.0073	-0.0462	0.0165	0.9585
40.8161	-4.0543	712.5943	56.3996	-262.934	-47.5546	636.69	-0.11828	2.5513	-1.3301	1.2695	1.7181	2.2492	-0.0592	0.0182	-0.0073	-0.0462	0.0165	0.9585
40.8293	-3.1383	708.5426	55.9634	-260.5474	-46.4007	629.9657	0.056398	2.4936	-2.2274	1.4717	2.9661	1.9307	-0.0592	0.0182	-0.0073	-0.0462	0.0165	0.9585
40.8425	-1.897	707.542	55.7696	-259.2603	-45.3778	625.6359	0.089316	2.4923	-2.5646	1.545	3.4676	1.8375	-0.0592	0.0182	-0.0073	-0.0462	0.0165	0.9585
40.8557	-0.26566	709.2039	55.8118	-258.9545	-44.4405	623.3216	0.028862	2.4517	-2.5618	1.5135	3.5095	1.806	-0.0592	0.0182	-0.0073	-0.0462	0.0165	0.9585
40.8689	1.7761	713.0365	56.0838	-259.4643	-43.5617	622.5924	-0.095468	2.2787	-2.3879	1.3863	3.3166	1.6931	-0.0592	0.0182	-0.0073	-0.0462	0.0165	0.9585
40.8821	4.2257	718.5035	56.5534	-260.6033	-42.7053	623.0057	-0.25997	1.8885	-2.1532	1.1601	3.0388	1.3799	-0.0592	0.0182	-0.0073	-0.0462	0.0165	0.9585
40.8954	7.0358	725.0668	57.1943	-262.177	-41.8606	624.152	-0.42778	1.2058	-1.9208	0.82357	2.7593	0.75651	-0.0592	0.0182	-0.0073	-0.0462	0.0165	0.9585
40.9086	10.1462	732.2108	57.975	-263.9947	-41.0183	625.6438	-0.57592	0.18638	-1.7175	0.36725	2.5138	-0.22958	-0.0592	0.0182	-0.0073	-0.0462	0.0165	0.9585
40.9218	13.4852	739.4621	58.874	-265.8785	-40.1829	627.1334	-0.64936	-1.1833	-1.5445	-0.2087	2.2925	-1.5972	-0.0592	0.0182	-0.0073	-0.0462	0.0165	0.9585
40.935	16.9631	746.3953	59.8738	-267.6655	-39.3669	628.3206	-0.60197	-2.819	-1.3776	-0.87231	2.0528	-3.2514	-0.0592	0.0182	-0.0073	-0.0462	0.0165	0.9585
40.9482	20.5107	752.6194	60.9516	-269.2098	-38.5748	628.913	-0.35324	-4.5153	-1.1812	-1.543	1.7257	-4.9884	-0.0592	0.0182	-0.0073	-0.0462	0.0165	0.9585
40.9614	24.0427	757.7897	62.0813	-270.3848	-37.8133	628.6649	0.17788	-5.8694	-0.90317	-2.0657	1.2228	-6.4001	-0.0592	0.0182	-0.0073	-0.0462	0.0165	0.9585
40.9746	27.506	761.6024	63.2327	-271.0841	-37.0817	627.3431	1.0841	-6.2298	-0.50789	-2.1871	0.46786	-6.8242	-0.0592	0.0182	-0.0073	-0.0462	0.0165	0.9585
40.9879	30.8363	763.8035	64.3856	-271.2219	-36.3883	624.7652	2.4509	-4.6506	0.032885	-1.5387	-0.60099	-5.3007	-0.0592	0.0182	-0.0073	-0.0462	0.0165	0.9585
41.0011	33.9925	764.1529	65.5199	-270.7219	-35.738	620.7572	4.3012	0.13264	0.71128	0.36966	-1.9817	-0.5395	-0.0592	0.0182	-0.0073	-0.0462	0.0165	0.9585
41.0143	36.9578	762.3252	66.6043	-269.4818	-35.1214	615.0782	6.5844	9.6112	1.4771	4.1177	-3.595	8.9578	-0.0592	0.0182	-0.0073	-0.0462	0.0165	0.9585
41.0275	39.7401	757.8248	67.5645	-267.3426	-34.4912	607.3727	9.0581	25.3386	2.2062	10.3047	-5.217	24.7595	-0.0592	0.0182	-0.0073	-0.0462	0.0165	0.9585
41.0407	42.3713	749.9354	68.2636	-264.0699	-33.7481	597.11	11.1964	48.5937	2.6865	19.4206	-6.4231	48.1493	-0.0592	0.0182	-0.0073	-0.0462	0.0165	0.9585
41.0539	44.8622	737.7776	68.4986	-259.3707	-32.7533	583.6599	11.9932	79.946	2.6242	31.6706	-6.5261	79.7276	-0.0592	0.0182	-0.0073	-0.0462	0.0165	0.9585
41.0671	47.1873	720.3925	68.02	-252.9251	-31.348	566.3414	10.2633	118.6682	1.6742	46.7507	-4.7272	118.8165	-0.0592	0.0182	-0.0073	-0.0462	0.0165	0.9585
41.0804	49.242	696.9343	66.5854	-244.4516	-29.4067	544.5943	5.5918	162.5179	-0.43894	63.763	-0.60013	163.1789	-0.0592	0.0182	-0.0073	-0.0462	0.0165	0.9585
41.0936	50.8614	666.8838	64.0118	-233.7799	-26.8688	518.115	-1.2134	207.9338	-3.8409	81.3156	5.6397	209.1384	-0.0592	0.0182	-0.0073	-0.0462	0.0165	0.9585
41.1068	51.8278	630.2513	60.2354	-220.9149	-23.7799	487.0082	-8.9093	251.6832	-8.1477	98.1805	13.0766	253.2182	-0.0592	0.0182	-0.0073	-0.0462	0.0165	0.9585
41.12	51.9252	587.6719	55.3189	-206.0675	-20.2673	451.8487	-16.4888	292.7424	-12.7029	113.9922	20.6224	294.1731	-0.0592	0.0182	-0.0073	-0.0462	0.0165	0.9585
41.1332	50.9868	540.2547	49.4724	-189.6042	-16.5326	413.5413	-23.2689	331.8806	-16.9107	129.0819	27.4048	332.6318	-0.0592	0.0182	-0.0073	-0.0462	0.0165	0.9585
41.1464	48.9033	489.3341	42.9728	-171.9639	-12.788	373.1326	-28.8013	370.3538	-20.4078	143.9592	32.8881	369.7742	-0.0592	0.0182	-0.0073	-0.0462	0.0165	0.9585
41.1596	45.6382	436.2565	36.143	-153.5838	-9.2463	331.6325	-32.798	409.1304	-23.0827	159	36.8698	406.5034	-0.0592	0.0182	-0.0073	-0.0462	0.0165	0.9585
41.1729	41.2189	382.2649	29.3477	-134.8595	-6.1299	289.9402	-35.1746	448.6815	-25.1286	174.3574	39.5364	443.2695	-0.0592	0.0182	-0.0073	-0.0462	0.0165	0.9585
41.1861	35.7636	328.4418	22.9699	-116.1336	-3.6494	248.7989	-36.0724	489.0714	-26.9053	190.0018	41.3228	480.1809	-0.0592	0.0182	-0.0073	-0.0462	0.0165	0.9585
41.1993	29.4808	275.7875	17.3543	-97.7311	-1.9696	208.8659	-35.8252	530.0145	-28.9097	205.7533	42.8592	517.0611	-0.0592	0.0182	-0.0073	-0.0462	0.0165	0.9585
41.2125	22.6461	225.3839	12.7167	-80.0249	-1.148	170.851	-34.9128	571.0144	-31.5806	221.3543	44.7605	553.5715	-0.0592	0.0182	-0.0073	-0.0462	0.0165	0.9585
41.2257	15.6445	178.4602	9.1084	-63.462	-1.0947	135.5652	-33.8724	611.5158	-35.175	236.5439	47.4749	589.3318	-0.0592	0.0182	-0.0073	-0.0462	0.0165	0.9585
41.2389	8.961	136.2764	6.4456	-48.512	-1.587	103.8664	-33.1722	650.9408	-39.6863	251.0791	51.1688	623.9368	-0.0592	0.0182	-0.0073	-0.0462	0.0165	0.9585
41.2521	3.1295	99.7998	4.5829	-35.5448	-2.3404	76.4107	-33.059	688.5732	-44.8323	264.6999	55.6587	656.7924	-0.0592	0.0182	-0.0073	-0.0462	0.0165	0.9585
41.2654	-1.4193	69.4761	3.3197	-24.7422	-3.0589	53.5028	-33.5392	723.5075	-50.1552	277.1006	60.5026	687.0803	-0.0592	0.0182	-0.0073	-0.0462	0.0165	0.9585
41.2786	-4.4665	45.2335	2.4444	-16.0975	-3.5106	35.0958	-34.4339	754.6218	-55.1678	287.9151	65.168	713.7329	-0.0592	0.0182	-0.0073	-0.0462	0.0165	0.9585
41.2918	-5.9964	26.6795	1.7603	-9.4812	-3.5462	20.9244	-35.4671	780.6869	-59.4694	296.7452	69.1775	735.5566	-0.0592	0.0182	-0.0073	-0.0462	0.0165	0.9585
41.305	-6.1615	13.2147	1.1616	-4.6817	-3.1492	10.5748	-36.3408	800.522	-62.7784	303.212	72.161	751.3995	-0.0592	0.0182	-0.0073	-0.0462	0.0165	0.9585
41.3182	-5.33	4.1229	0.62098	-1.4452	-2.4383	3.5305	-36.7817	813.1717	-64.9569	307.0176	73.8916	760.3234	-0.0592	0.0182	-0.0073	-0.0462	0.0165	0.9585
41.3314	-4.063	-1.369	0.17888	0.50727	-1.6427	-0.76538	-36.5768	818.1844	-65.9512	308.0463	74.2476	761.8791	-0.0592	0.0182	-0.0073	-0.0462	0.0165	0.9585
